<svg xmlns="http://www.w3.org/2000/svg" xmlns:xlink="http://www.w3.org/1999/xlink" width="16" height="16" viewBox="0 0 16 16"><defs><clipPath id="b"><rect width="16" height="16"/></clipPath></defs><g id="a" clip-path="url(#b)"><path d="M689.408,389.663a8.42,8.42,0,0,0-1.591-2.7,7.825,7.825,0,0,0-3.62-2.357,5.049,5.049,0,1,0-5.16.067,8.822,8.822,0,0,0-3.628,2.239,9.731,9.731,0,0,0-1.9,2.66.923.923,0,0,0-.067.337.841.841,0,0,0,1.608.345,8.024,8.024,0,0,1,1.591-2.189,7.032,7.032,0,0,1,5.109-2.113,6.114,6.114,0,0,1,4.756,2.062,6.788,6.788,0,0,1,1.3,2.155.848.848,0,0,0,1.027.53A.839.839,0,0,0,689.408,389.663ZM678.2,380.311a3.367,3.367,0,1,1,3.367,3.367A3.366,3.366,0,0,1,678.2,380.311Z" transform="translate(-673.44 -375.26)"/></g></svg>