<svg xmlns="http://www.w3.org/2000/svg" xmlns:xlink="http://www.w3.org/1999/xlink" width="16" height="16" viewBox="0 0 16 16"><defs><clipPath id="b"><rect width="16" height="16"/></clipPath></defs><g id="a" clip-path="url(#b)"><path d="M10.571,17.928a8,8,0,1,1,8-8A8,8,0,0,1,10.571,17.928Zm6.484-8.671a.05.05,0,0,0,.025-.035.244.244,0,0,0,.077.14c0,.005,0,0,0,.011s.007,0,.011,0a.242.242,0,0,0,.153.057.247.247,0,0,0,.209-.121.12.12,0,0,1,.011.012c0-.008,0-.016,0-.024a.243.243,0,0,0,.033-.118.25.25,0,0,0-.25-.25.247.247,0,0,0-.206.116s0-.007-.006-.005a.226.226,0,0,0-.039-.119v.259A.261.261,0,0,1,17.055,9.258ZM5.567,9.183c0-.076-.172-.2-.217-.2,0-.014-.07-.167-.1-.167,0-.052-.182-.285-.211-.184-.019.066.14.155.14.232.029,0,.153.235.178.276.271.458-.2.145-.2-.049A.638.638,0,0,1,5,8.763a1.034,1.034,0,0,1-.132-.251c0-.146-.081-.216-.241-.216-.007-.015-.142-.2-.144-.2a.53.53,0,0,0-.168-.275,1.938,1.938,0,0,1-.035-.407,1.379,1.379,0,0,0-.053-.428A6.977,6.977,0,0,0,8.169,16.5c0-.248.021-.545.078-.545,0-.037.032-.192.06-.192a3.03,3.03,0,0,0,0-.323c-.035-.072.047-.163.072-.276.139-.069.041-.767.145-.767a4.75,4.75,0,0,0,.023-.874c.027,0-.157-.2-.156-.192-.176,0-.3-.283-.3-.407a.754.754,0,0,1-.061-.2c.041,0-.252-.428-.252-.42-.155-.086.009-.206.024-.347-.134-.045,0-.408.06-.408a.113.113,0,0,1,.072-.1c.03.119.169-.059.06-.059,0-.079-.009-.248,0-.288,0-.122-.108-.361-.192-.108-.09-.045-.317-.037-.336-.18.014-.07-.129-.215-.18-.239.047-.123-.243-.288-.348-.288,0-.026-.056-.014-.072-.048-.107,0-.132-.144-.253-.144-.14,0-.28-.1-.408-.1-.043-.086-.243-.052-.288-.144-.1,0-.146-.2-.149-.271,0-.09-.076-.4-.2-.4ZM15.695,5.17a.025.025,0,0,1,0,.011c.007,0,.017.008.025.012Zm.151.166a.161.161,0,0,1,.026.085c.017,0,.026-.009.04-.012C15.89,5.384,15.867,5.361,15.845,5.336Zm.434,2.278c.008-.216-.18-.18-.24-.3-.062,0-.084-.048-.168-.048a.1.1,0,0,0-.129.039c-.128.049-.051-.062-.148-.062,0-.123-.044-.158-.181-.144-.078.176-.2.282-.18.479.058.013.048.026.036.083.076,0,.54-.024.54-.072.016,0,.1.165.1.024.064,0,.1.151.252.107,0,.031.257-.107.12-.107Zm.024,2.552c.009-.044-.022-.063-.048-.108.069,0-.216-.528-.216-.611-.044-.021-.1-.173-.109-.227a.574.574,0,0,1-.144-.24.869.869,0,0,1-.228-.3c.086.009.216.027.216-.084-.058,0-.067-.071-.012-.071-.018-.073.039-.127.051-.184a1.356,1.356,0,0,0,.045-.259.4.4,0,0,0-.168.036c0,.049-.147-.012-.168-.012-.031-.063-.26.082-.324-.048-.1-.093-.076-.165-.109-.3-.017-.067-.109-.071-.164-.082-.156-.031-.043.186-.052.236.1,0-.061.119-.061.18-.162-.035-.108-.215-.2-.263-.029-.048-.006-.084-.072-.084,0-.064.034-.18-.036-.2,0-.031-.136-.043-.156-.084-.086,0-.286-.325-.348-.215-.039.07.032.087.047.144.124-.025.113.2.264.179a.417.417,0,0,0,.012.1c.112-.027.1.083.156.083-.041.055-.171-.087-.135.032.02.069.009.128-.081.2,0-.075-.006-.275-.084-.275-.053-.106-.211-.081-.277-.18-.054,0-.075-.168-.168-.179a.188.188,0,0,1-.108.048c-.051.1-.336.01-.336.024s-.16.381-.169.431c-.018.108-.1.11-.13.212-.013.051-.326.027-.326.064a.32.32,0,0,1-.252-.287,2.256,2.256,0,0,1,.049-.432c.027.007.033.017.049.048.083-.031.277.021.277-.072q.121,0,.072.1c.075.014.2.033.2-.072-.044,0-.049,0-.049-.048.144-.15-.108-.285-.108-.359-.051-.017-.155-.128-.081-.086s.291.106.2-.046a.017.017,0,0,0,.012-.012c.026.018.133.129.133.024.03,0,.144-.072.048-.072.009-.054.007-.1.012-.132.153.082.068-.056.144-.107,0,.1.082-.048.132-.048.059-.089.2-.02.229-.12-.074-.024-.06-.208-.06-.275.089.015.187-.119.2-.027,0,.035.009.133.028.147.132.069.1-.04.1-.108-.044,0-.1-.154-.108-.228-.036,0-.094.02-.109.048-.131,0-.22-.048-.324-.048a1.858,1.858,0,0,1-.12-.156c-.073-.126.073-.089.1-.095,0-.119.5-.1.517-.288-.163,0,.168-.276.168-.275.11-.094.169-.176.306-.187.058,0,.7-.182.7-.1l.2.005a6.969,6.969,0,0,0-9.4-.108.177.177,0,0,1,.019.066c.066,0,.16-.047.181.036a.411.411,0,0,1-.1-.012c.023.185-.081.072-.168.072a.242.242,0,0,0-.08-.031L5.707,4.9c0,.008,0,.009,0,.017.028,0,.013.043.094.07a1.782,1.782,0,0,0,.292.065.928.928,0,0,0,.192-.014c0-.01.165-.083.049-.083.016-.066-.014-.083-.084-.084.006-.07.172-.024.24-.024.052-.088,0-.077.047-.156.055-.1.121-.013.156-.107a.168.168,0,0,1,.121.118c.043.036.265.362.265.132.079.027.118.175.12.252.143-.021.156-.128.156-.24.033,0-.012-.054-.012-.072.054-.019.121.051.121-.023.023,0,.024.023.024.048.075.014.123-.009.168.007s.015.174,0,.232c-.018.073-.157.074-.157.108-.158.118.187.18.24.251a.665.665,0,0,1-.156-.023c-.078,0-.267.082-.336.023.1,0,.129-.116.144-.227a.172.172,0,0,0-.22.111c-.042.147-.14-.006-.188.093-.019.006-.193.086-.193.059-.195.028-.144.193-.144.372.078.047.235.179.228.252.175.031.239.049.4.072a.191.191,0,0,0,.1.059c0,.1.094.084.18.084,0-.131.153.11.168.156-.021,0,.036.134.048.18-.024-.009-.032,0-.024.024.076.028.2.02.217-.06-.073,0-.049-.084-.049-.132a.09.09,0,0,1,.012-.167c0,.068.247-.043.108-.1a.269.269,0,0,0,0-.261c-.035-.042-.08,0-.1-.063.095-.023.025-.2.024-.287.03-.011.108.019.108,0,.092,0,.247.117.3-.024.155.071.032.137.193.084a.694.694,0,0,0,.2.215c0,.008,0,.06.036.06,0,.039-.024-.022-.024.047.023,0,.144.024.144-.023.077,0,.132-.1.132-.168.049-.031.134.264.192.264.043.067.181.165.181.228.029.029.059.021.059.108.037,0,.109-.144.109-.012a.227.227,0,0,1,.144.132c-.086,0,0,.084-.049.084,0,.083-.186.017-.227.012-.057.257-.4.072-.615.139a.716.716,0,0,0-.336.4c.134,0,.193-.116.313-.156.1,0,.116-.059.2-.083,0,.024.024.011.024.036-.171,0-.067.111-.017.191a.206.206,0,0,0,.106.09.476.476,0,0,0-.04.09h0c-.033.011-.1.035-.109.06-.193.021-.1.008-.085-.038.007.017.076,0,.073,0-.011-.058-.029-.05-.012-.083-.105,0-.156.048-.241.048-.014.029-.087.1-.12.1a.569.569,0,0,1-.144.252c0-.02-.171.108-.156.108-.038.061-.08.059-.1.155a.807.807,0,0,0-.06.191c-.075.05-.1.252-.228.252-.078.154-.217.134-.217.335a1.055,1.055,0,0,1,.079.328c.018.085.046.173-.067.174-.008-.013-.087-.132-.072-.132a.762.762,0,0,0-.1-.257c-.048-.067-.135.01-.2-.019-.03-.059-.229-.072-.3-.072.011.045.044.059.048.108a.273.273,0,0,1-.154.043c-.1-.014-.092-.1-.207-.085a.347.347,0,0,0-.312.353,1.058,1.058,0,0,0,0,.36c0,.1.084.175.084.251.082,0,.173.18.253.18.009.064-.04.074.1.073,0-.007.074-.046.084-.1-.094-.023,0-.144.06-.168,0,.086.12-.028.12-.036l.133-.048c0-.1.09.01.024.048-.065,0-.06.108-.1.108-.015.077-.046.144-.064.219-.023.093.052.1.028.188a1.5,1.5,0,0,0,.288,0,.085.085,0,0,0-.012-.048c.14,0,.012.264.1.264,0,.1.048.177.048.24a.159.159,0,0,1,.084.18c.08.01.252.031.252-.072.121,0,.13.083.121.167.242,0,.09-.24.191-.24.01-.039.026-.046.049-.021.05.027.087-.049.127-.073a.326.326,0,0,1,.064-.034c.034.02.037.014.052.037A.36.36,0,0,0,8.69,10.5c.087.011.059.2.22.208a.575.575,0,0,0,.272-.016c.014-.01.065.032.071.05.054,0,.05.047.073.046a.019.019,0,0,0,.024.011c.007.02.05.026.073.083,0,.052.108.061.108.1.077.039-.027.049.092.085a.864.864,0,0,0,.2.059c.023-.086.1.011.132.011.019.039.029.01.048.048.111.093.038.057.084.156.054.035.071.157.085.228-.043,0-.013.164-.013.18-.052,0,.133.1.133-.025.076.013.126.1.18.1-.031.073.084.127.084.013.114.011.083.181.072.24.085,0,.109-.047.181-.056a.489.489,0,0,1,.264-.086.5.5,0,0,1,.5.5.494.494,0,0,1-.424.484.875.875,0,0,1-.063.068c0,.024-.005.263-.012.263,0,.048-.037.312-.072.312,0,.135-.089.16-.12.288-.073.054-.271.144-.3.2-.057,0-.1.048-.156.048-.008.017-.13.132-.109.132-.009.085.006.285-.039.341-.031.037-.076.033-.056.091-.068,0,0,.048-.1.048a.238.238,0,0,0-.19.177.266.266,0,0,1-.116.231c0,.034-.156.044-.156.132.014,0,0,.163,0,.179a.284.284,0,0,0-.18.084c-.157,0-.138.016-.24.084,0,.021-.014.1-.036.1,0,.122-.087.011-.156.073.028,0,.063.119.048.119,0,.105-.066.115-.132.192-.032.021-.062.108-.084.108,0,.071-.035.135-.035.2.015,0,0,.03.011.059.034-.01.035-.048.048-.048,0-.06.1.036.036.036-.049.075-.1.076-.132.18-.03,0-.056.029-.078.063a6.959,6.959,0,0,0,7.719-2.942,1.918,1.918,0,0,1,.055-.4c.049.036.086.1.12,0-.087-.017-.066-.047-.036-.12a.3.3,0,0,0,.154.041c.016-.031.029-.064.046-.1-.049-.038.019-.136.042-.089.013-.024.023-.049.035-.073-.006,0,0,0-.012,0,0-.043.008-.038.036-.06a.044.044,0,0,0,0,.008,6.963,6.963,0,0,0,.688-3.012c0-.035,0-.069-.006-.1-.013.049-.037.1-.072.114,0,.031-.357.187-.336.251-.063,0-.284.063-.325.144a.558.558,0,0,0-.241.1c-.223,0-.18-.263-.288-.263Zm1.017-2.737h-.265s0,0-.006-.007-.07-.127-.048-.156a.355.355,0,0,1,.043,0c-.022-.055-.047-.109-.071-.164a.345.345,0,0,1-.176.089c0,.021-.106.228,0,.228a.036.036,0,0,0,0,.01.249.249,0,0,0,.021.5h.1c.006.045.03.085.118.1.028.115.234.156.265.035-.087,0-.059-.083-.051-.14h.07a.25.25,0,1,0,0-.5Zm-.728,3.251c.018,0,.133,0,.133-.022a1.222,1.222,0,0,0,.348-.049c0,.155-.131.241-.108.4-.087,0-.049.089-.049.119-.056.035-.064.1-.132.132,0,.069-.156.184-.2.244s-.209.182-.229.266c.006-.02-.286.3-.218.3,0,.06-.082.539.024.539,0,.042.09.444.035.444,0,.129-.084.208-.084.311-.041.028-.1.043-.12.084-.074,0-.109.156-.144.156,0,.167-.049.29-.049.479.013,0-.1.27-.1.287-.089.059-.312.273-.312.384,0,0-.156.219-.18.251a1.548,1.548,0,0,0-.409.1c-.077,0-.276.06-.324-.012,0-.076-.042-.173-.048-.276-.037,0-.043-.155-.084-.155a4.131,4.131,0,0,1-.193-.492.8.8,0,0,0-.048-.2c0-.165-.121-.3-.121-.455-.035,0-.109-.335-.072-.335A3.756,3.756,0,0,1,14,12.686a1.157,1.157,0,0,0-.051-.5c-.021,0-.09-.115-.1-.144a.364.364,0,0,1-.132-.311.81.81,0,0,0,.072-.432.537.537,0,0,0-.3-.036c-.077-.156-.6-.059-.746-.059,0,.085-.363-.017-.4-.084-.089,0-.264-.188-.264-.276a.986.986,0,0,1-.252-.491c-.084-.042-.058-.2-.012-.2a.854.854,0,0,0-.049-.254c-.014-.051.049-.105.049-.165a.722.722,0,0,1,.1-.423,1.633,1.633,0,0,0,.095-.179c.05-.125.065-.006.132-.118.064-.032.1-.139.168-.191.029-.038.03-.055,0-.084a.721.721,0,0,0,.084-.227c.094-.131.027-.071.12-.06.034-.037.09-.132.144-.132a.152.152,0,0,1,.132-.072c0,.072.2-.024.217-.024a.553.553,0,0,1,.3-.144c0-.082.426.023.493.012V8.057c.091.021.257.387.24.467a.937.937,0,0,1,.181,0c0,.078.146.1.212.1.092,0,.364-.009.364-.136a.112.112,0,0,1,.121.132c.081.009.563.018.528.119.071,0,.089.121.156.121-.013.083.084.3.156.3a.377.377,0,0,0,.109.251.877.877,0,0,0,.252.383c-.045.085.069.155.1.24-.006,0,.025.125.059.144,0,.085.179.432.277.432.007.042-.092.061.036.07ZM14,8c.018-.072.061-.016.1,0,.092.03.061,0,.129-.032C14.225,8.156,14.113,8.008,14,8Zm-.253-.359c.049,0,.063.22-.072.179,0-.054-.035-.156.036-.156.02.085.035.05.035-.024Zm-.059-.144c.056.024.08.016.072-.024.073.024-.009.076-.024.132C13.695,7.565,13.706,7.552,13.684,7.494ZM12.4,6.427c-.118-.031.122-.066.132-.1a.056.056,0,0,1-.052-.076c.018-.042.047.049.089.029.049,0,.144-.077.1.063s-.1.246-.276.248C12.321,6.53,12.383,6.5,12.4,6.427Zm.445-.491c.1,0,.012.072-.009.072.016.006,0,.064,0,.083.09,0,.092-.056.156-.072-.014.08-.1.1-.016.165.046.036.094.079.075.135.115,0,.132.11.108.24.063,0,.061,0,.061-.061.062.017.057.073,0,.073-.057.113-.206.107-.312.107,0-.087-.017-.092-.1-.068-.11.033-.024-.088-.022-.147.012,0,.25.011.108-.036-.007-.129-.036-.168-.156-.168,0-.088-.031-.082-.045-.178C12.668,5.939,12.8,6.092,12.843,5.936Zm-.036.778c0,.03-.06.053-.072.012.012,0,.016,0,.012-.012Zm-.986-1.286h-.5a.25.25,0,1,1,0-.5h.5a.25.25,0,1,1,0,.5ZM8.908,9.853c.028,0,.061.011.061.036C8.932,9.889,8.885,9.924,8.908,9.853Zm-.456.024c-.02.038-.182.031-.2-.013.06,0,.107.024.168,0,0-.033-.028-.059-.048-.1.066,0,.139.05.229.048,0-.056-.024.012,0-.06a.281.281,0,0,1,.132.132,1.783,1.783,0,0,0-.276-.012ZM7.923,9.59a.337.337,0,0,1-.217-.108c.06,0,.118.027.156-.036.153.016.166.121.288.121.023.041.154.133.028.146a.278.278,0,0,1-.255-.122Zm.1.335c-.044,0-.118.02-.084-.072C7.994,9.861,8.022,9.886,8.019,9.926ZM8.1,9.914l-.072.012C8.038,9.87,8.09,9.808,8.1,9.914Zm.444.527c-.01.033-.008.035-.048.035,0-.016.008-.031.011-.047ZM7.466,9.446l.036.012c.015.059.048.03.084.012C7.586,9.54,7.425,9.56,7.466,9.446Z" transform="translate(-2.57 -1.928)"/></g></svg>