<?xml version="1.0" encoding="utf-8"?>
<!-- Generator: Adobe Illustrator 25.4.1, SVG Export Plug-In . SVG Version: 6.00 Build 0)  -->
<svg version="1.1" xmlns="http://www.w3.org/2000/svg" xmlns:xlink="http://www.w3.org/1999/xlink" x="0px" y="0px"
	 viewBox="0 0 16 16" style="enable-background:new 0 0 16 16;" xml:space="preserve">
<g>
	<defs>
		<rect id="SVGID_1_" width="16" height="16"/>
	</defs>
	<path style="clip-path:url(#SVGID_00000171685743231618744800000016757430376661425547_);" d="M8,16c-4.4,0-8-3.6-8-8s3.6-8,8-8
		s8,3.6,8,8v0C16,12.4,12.4,16,8,16z M14.5,7.3C14.5,7.3,14.5,7.3,14.5,7.3c0,0,0.1,0.1,0.1,0.1c0,0,0,0,0,0s0,0,0,0
		c0,0,0.1,0.1,0.2,0.1c0.1,0,0.2,0,0.2-0.1c0,0,0,0,0,0c0,0,0,0,0,0c0,0,0-0.1,0-0.1C15,7.1,14.9,7,14.8,7c-0.1,0-0.2,0-0.2,0.1
		c0,0,0,0,0,0c0,0,0-0.1,0-0.1L14.5,7.3C14.5,7.3,14.5,7.3,14.5,7.3L14.5,7.3z M3,7.3c0-0.1-0.2-0.2-0.2-0.2c0,0-0.1-0.2-0.1-0.2
		c0-0.1-0.2-0.3-0.2-0.2c0,0.1,0.1,0.2,0.1,0.2c0,0,0.2,0.2,0.2,0.3c0.3,0.5-0.2,0.1-0.2,0C2.5,7.1,2.4,7,2.4,6.8
		C2.4,6.8,2.3,6.7,2.3,6.6c0-0.1-0.1-0.2-0.2-0.2c0,0-0.1-0.2-0.1-0.2c0-0.1-0.1-0.2-0.2-0.3c0-0.1,0-0.3,0-0.4c0-0.1,0-0.3-0.1-0.4
		C0,8.5,1.5,12.7,5,14.3c0.2,0.1,0.4,0.2,0.6,0.2c0-0.2,0-0.5,0.1-0.5c0,0,0-0.2,0.1-0.2c0-0.1,0-0.2,0-0.3c0-0.1,0-0.2,0.1-0.3
		c0.1-0.1,0-0.8,0.1-0.8c0-0.3,0-0.6,0-0.9c0,0-0.2-0.2-0.2-0.2c-0.2,0-0.3-0.3-0.3-0.4c0-0.1-0.1-0.1-0.1-0.2c0,0-0.3-0.4-0.3-0.4
		c-0.2-0.1,0-0.2,0-0.3c-0.1,0,0-0.4,0.1-0.4c0,0,0-0.1,0.1-0.1c0,0.1,0.2-0.1,0.1-0.1c0-0.1,0-0.2,0-0.3c0-0.1-0.1-0.4-0.2-0.1
		C5.1,9,4.9,9,4.9,8.9c0-0.1-0.1-0.2-0.2-0.2c0-0.1-0.2-0.3-0.3-0.3c0,0-0.1,0-0.1,0C4.2,8.3,4.2,8.2,4,8.2c-0.1,0-0.3-0.1-0.4-0.1
		C3.6,8,3.4,8,3.3,7.9c-0.1,0-0.1-0.2-0.1-0.3C3.2,7.6,3.1,7.3,3,7.3L3,7.3z M13.1,3.2C13.1,3.2,13.1,3.2,13.1,3.2
		C13.1,3.3,13.1,3.3,13.1,3.2L13.1,3.2z M13.3,3.4C13.3,3.4,13.3,3.5,13.3,3.4C13.3,3.5,13.3,3.5,13.3,3.4
		C13.3,3.5,13.3,3.4,13.3,3.4L13.3,3.4z M13.7,5.7c0-0.2-0.2-0.2-0.2-0.3c-0.1,0-0.1,0-0.2,0c0,0-0.1,0-0.1,0
		c-0.1,0-0.1-0.1-0.1-0.1c0-0.1,0-0.2-0.2-0.1c-0.1,0.2-0.2,0.3-0.2,0.5c0.1,0,0,0,0,0.1c0.1,0,0.5,0,0.5-0.1c0,0,0.1,0.2,0.1,0
		c0.1,0,0.1,0.2,0.3,0.1C13.6,5.8,13.8,5.7,13.7,5.7L13.7,5.7z M13.7,8.2c0,0,0-0.1,0-0.1c0.1,0-0.2-0.5-0.2-0.6
		c0,0-0.1-0.2-0.1-0.2c-0.1-0.1-0.1-0.1-0.1-0.2C13.1,7,13,6.9,13,6.8c0.1,0,0.2,0,0.2-0.1c-0.1,0-0.1-0.1,0-0.1
		c0-0.1,0-0.1,0.1-0.2c0-0.1,0-0.2,0-0.3c-0.1,0-0.1,0-0.2,0c0,0-0.1,0-0.2,0c0-0.1-0.3,0.1-0.3,0C12.5,6,12.6,6,12.5,5.8
		c0-0.1-0.1-0.1-0.2-0.1c-0.2,0,0,0.2-0.1,0.2c0.1,0-0.1,0.1-0.1,0.2c-0.2,0-0.1-0.2-0.2-0.3c0,0,0-0.1-0.1-0.1c0-0.1,0-0.2,0-0.2
		c0,0-0.1,0-0.2-0.1c-0.1,0-0.3-0.3-0.3-0.2c0,0.1,0,0.1,0,0.1c0.1,0,0.1,0.2,0.3,0.2c0,0,0,0.1,0,0.1c0.1,0,0.1,0.1,0.2,0.1
		c0,0.1-0.2-0.1-0.1,0c0,0.1,0,0.1-0.1,0.2c0-0.1,0-0.3-0.1-0.3c-0.1-0.1-0.2-0.1-0.3-0.2c-0.1,0-0.1-0.2-0.2-0.2c0,0-0.1,0-0.1,0
		c-0.1,0.1-0.3,0-0.3,0s-0.2,0.4-0.2,0.4c0,0.1-0.1,0.1-0.1,0.2c0,0.1-0.3,0-0.3,0.1c-0.1,0-0.2-0.1-0.3-0.3c0-0.1,0-0.3,0-0.4
		c0,0,0,0,0,0c0.1,0,0.3,0,0.3-0.1c0.1,0,0.1,0,0.1,0.1c0.1,0,0.2,0,0.2-0.1c0,0,0,0,0,0c0.1-0.2-0.1-0.3-0.1-0.4
		c-0.1,0-0.2-0.1-0.1-0.1s0.3,0.1,0.2,0c0,0,0,0,0,0c0,0,0.1,0.1,0.1,0c0,0,0.1-0.1,0-0.1c0-0.1,0-0.1,0-0.1
		c0.2,0.1,0.1-0.1,0.1-0.1c0,0.1,0.1,0,0.1,0c0.1-0.1,0.2,0,0.2-0.1c-0.1,0-0.1-0.2-0.1-0.3c0.1,0,0.2-0.1,0.2,0c0,0,0,0.1,0,0.1
		c0.1,0.1,0.1,0,0.1-0.1c0,0-0.1-0.2-0.1-0.2c0,0-0.1,0-0.1,0c-0.1,0-0.2,0-0.3,0c0,0-0.1-0.1-0.1-0.2c-0.1-0.1,0.1-0.1,0.1-0.1
		c0-0.1,0.5-0.1,0.5-0.3c-0.2,0,0.2-0.3,0.2-0.3C11.7,3.1,11.7,3,11.9,3c0.1,0,0.7-0.2,0.7-0.1l0.2,0c-2.6-2.5-6.7-2.5-9.4-0.1
		c0,0,0,0,0,0.1c0.1,0,0.2,0,0.2,0c0,0-0.1,0-0.1,0c0,0.2-0.1,0.1-0.2,0.1c0,0-0.1,0-0.1,0L3.1,3c0,0,0,0,0,0c0,0,0,0,0.1,0.1
		c0.1,0,0.2,0.1,0.3,0.1c0.1,0,0.1,0,0.2,0c0,0,0.2-0.1,0-0.1c0-0.1,0-0.1-0.1-0.1c0-0.1,0.2,0,0.2,0c0.1-0.1,0-0.1,0-0.2
		c0.1-0.1,0.1,0,0.2-0.1c0.1,0,0.1,0.1,0.1,0.1c0,0,0.3,0.4,0.3,0.1c0.1,0,0.1,0.2,0.1,0.3c0.1,0,0.2-0.1,0.2-0.2c0,0,0-0.1,0-0.1
		c0.1,0,0.1,0.1,0.1,0c0,0,0,0,0,0c0.1,0,0.1,0,0.2,0s0,0.2,0,0.2c0,0.1-0.2,0.1-0.2,0.1C4.8,3.3,5.1,3.4,5.2,3.5
		c-0.1,0-0.1,0-0.2,0c-0.1,0-0.3,0.1-0.3,0c0.1,0,0.1-0.1,0.1-0.2c-0.1,0-0.2,0-0.2,0.1c0,0,0,0,0,0c0,0.1-0.1,0-0.2,0.1
		c0,0-0.2,0.1-0.2,0.1C4,3.5,4.1,3.7,4.1,3.9c0.1,0,0.2,0.2,0.2,0.3c0.2,0,0.2,0,0.4,0.1c0,0,0.1,0.1,0.1,0.1c0,0.1,0.1,0.1,0.2,0.1
		c0-0.1,0.2,0.1,0.2,0.2c0,0,0,0.1,0,0.2c0,0,0,0,0,0c0.1,0,0.2,0,0.2-0.1c-0.1,0,0-0.1,0-0.1c0,0-0.1-0.1,0-0.1c0,0,0,0,0.1,0
		c0,0.1,0.2,0,0.1-0.1c0-0.1,0-0.2,0-0.3c0,0-0.1,0-0.1-0.1c0.1,0,0-0.2,0-0.3c0,0,0.1,0,0.1,0c0.1,0,0.2,0.1,0.3,0
		C6,3.7,5.8,3.7,6,3.7C6,3.8,6.1,3.9,6.2,3.9c0,0,0,0.1,0,0.1c0,0,0,0,0,0c0,0,0.1,0,0.1,0c0.1,0,0.1-0.1,0.1-0.2
		c0,0,0.1,0.3,0.2,0.3c0,0.1,0.2,0.2,0.2,0.2c0,0,0.1,0,0.1,0.1c0,0,0.1-0.1,0.1,0c0.1,0,0.1,0.1,0.1,0.1c-0.1,0,0,0.1,0,0.1
		c0,0.1-0.2,0-0.2,0C6.8,4.9,6.5,4.7,6.3,4.8C6.1,4.9,6,5,5.9,5.2c0.1,0,0.2-0.1,0.3-0.2C6.3,5,6.4,5,6.4,4.9c0,0,0,0,0,0
		c-0.2,0-0.1,0.1,0,0.2c0,0,0.1,0.1,0.1,0.1c0,0,0,0.1,0,0.1l0,0c0,0-0.1,0-0.1,0.1c-0.2,0-0.1,0-0.1,0c0,0,0.1,0,0.1,0
		c0-0.1,0-0.1,0-0.1c-0.1,0-0.2,0-0.2,0c0,0-0.1,0.1-0.1,0.1C6,5.5,6,5.6,5.9,5.7c0,0-0.2,0.1-0.2,0.1c0,0.1-0.1,0.1-0.1,0.2
		c0,0.1,0,0.1-0.1,0.2C5.5,6.2,5.5,6.4,5.3,6.4C5.3,6.5,5.1,6.5,5.1,6.7c0,0.1,0.1,0.2,0.1,0.3c0,0.1,0,0.2-0.1,0.2
		c0,0-0.1-0.1-0.1-0.1C5,7,5,6.9,5,6.8c0-0.1-0.1,0-0.2,0c0-0.1-0.2-0.1-0.3-0.1c0,0,0,0.1,0,0.1c0,0-0.1,0-0.2,0
		c-0.1,0-0.1-0.1-0.2-0.1C4,6.8,3.8,7,3.8,7.2c0,0.1,0,0.2,0,0.4c0,0.1,0.1,0.2,0.1,0.3C4,7.8,4.1,8,4.2,8C4.2,8,4.1,8,4.3,8
		c0,0,0.1,0,0.1-0.1c-0.1,0,0-0.1,0.1-0.2c0,0.1,0.1,0,0.1,0l0.1,0c0-0.1,0.1,0,0,0c-0.1,0-0.1,0.1-0.1,0.1c0,0.1,0,0.1-0.1,0.2
		c0,0.1,0.1,0.1,0,0.2c0.1,0,0.2,0,0.3,0c0,0,0,0,0,0c0.1,0,0,0.3,0.1,0.3c0,0.1,0,0.2,0,0.2c0.1,0,0.1,0.1,0.1,0.2
		c0.1,0,0.3,0,0.3-0.1c0.1,0,0.1,0.1,0.1,0.2c0.2,0,0.1-0.2,0.2-0.2c0,0,0,0,0,0c0.1,0,0.1,0,0.1-0.1c0,0,0,0,0.1,0c0,0,0,0,0.1,0
		c0.1,0,0.1,0,0.2-0.1c0.1,0,0.1,0.2,0.2,0.2c0.1,0,0.2,0,0.3,0c0,0,0.1,0,0.1,0.1c0.1,0,0.1,0,0.1,0c0,0,0,0,0,0c0,0,0.1,0,0.1,0.1
		C6.9,9,7,9,7,9.1c0.1,0,0,0,0.1,0.1c0.1,0,0.1,0,0.2,0.1c0-0.1,0.1,0,0.1,0c0,0,0,0,0,0c0.1,0.1,0,0.1,0.1,0.2
		c0.1,0,0.1,0.2,0.1,0.2c0,0,0,0.2,0,0.2c-0.1,0,0.1,0.1,0.1,0c0.1,0,0.1,0.1,0.2,0.1C7.9,10,8,10,8,9.9c0.1,0,0.1,0.2,0.1,0.2
		c0.1,0,0.1,0,0.2-0.1C8.3,10,8.4,10,8.5,10C8.8,10,9,10.2,9,10.5C9,10.8,8.8,11,8.6,11c0,0,0,0-0.1,0.1c0,0,0,0.3,0,0.3
		c0,0,0,0.3-0.1,0.3c0,0.1-0.1,0.2-0.1,0.3C8.2,12,8,12.1,8,12.1c-0.1,0-0.1,0-0.2,0c0,0-0.1,0.1-0.1,0.1c0,0.1,0,0.3,0,0.3
		c0,0-0.1,0-0.1,0.1c-0.1,0,0,0-0.1,0c-0.1,0-0.2,0.1-0.2,0.2c0,0.1,0,0.2-0.1,0.2c0,0-0.2,0-0.2,0.1c0,0,0,0.2,0,0.2
		c-0.1,0-0.1,0-0.2,0.1c-0.2,0-0.1,0-0.2,0.1c0,0,0,0.1,0,0.1c0,0.1-0.1,0-0.2,0.1c0,0,0.1,0.1,0,0.1c0,0.1-0.1,0.1-0.1,0.2
		c0,0-0.1,0.1-0.1,0.1c0,0.1,0,0.1,0,0.2c0,0,0,0,0,0.1c0,0,0,0,0,0c0-0.1,0.1,0,0,0c0,0.1-0.1,0.1-0.1,0.2c0,0-0.1,0-0.1,0.1
		c2.9,0.8,6.1-0.4,7.7-2.9c0-0.1,0-0.3,0.1-0.4c0,0,0.1,0.1,0.1,0c-0.1,0-0.1,0,0-0.1c0,0,0.1,0,0.2,0c0,0,0-0.1,0-0.1
		c0,0,0-0.1,0-0.1c0,0,0,0,0-0.1c0,0,0,0,0,0c0,0,0,0,0-0.1c0,0,0,0,0,0c0.5-0.9,0.7-2,0.7-3c0,0,0-0.1,0-0.1C15,8,15,8,14.9,8
		c0,0-0.4,0.2-0.3,0.3c-0.1,0-0.3,0.1-0.3,0.1c-0.1,0-0.2,0-0.2,0.1C13.8,8.5,13.8,8.3,13.7,8.2L13.7,8.2z M14.8,5.5h-0.3
		c0,0,0,0,0,0s-0.1-0.1,0-0.2c0,0,0,0,0,0c0-0.1,0-0.1-0.1-0.2c0,0-0.1,0.1-0.2,0.1c0,0-0.1,0.2,0,0.2c0,0,0,0,0,0
		c-0.1,0-0.2,0.1-0.2,0.3S14.1,6,14.2,6l0,0h0.1c0,0,0,0.1,0.1,0.1c0,0.1,0.2,0.2,0.3,0c-0.1,0-0.1-0.1-0.1-0.1h0.1
		C14.9,6,15,5.9,15,5.7S14.9,5.5,14.8,5.5L14.8,5.5z M14,8.8c0,0,0.1,0,0.1,0c0.1,0,0.2,0,0.3,0c0,0.2-0.1,0.2-0.1,0.4
		c-0.1,0,0,0.1,0,0.1c-0.1,0-0.1,0.1-0.1,0.1c0,0.1-0.2,0.2-0.2,0.2c0,0.1-0.2,0.2-0.2,0.3c0,0-0.3,0.3-0.2,0.3c0,0.1-0.1,0.5,0,0.5
		c0,0,0.1,0.4,0,0.4c0,0.1-0.1,0.2-0.1,0.3c0,0-0.1,0-0.1,0.1c-0.1,0-0.1,0.2-0.1,0.2c0,0.2,0,0.3,0,0.5c0,0-0.1,0.3-0.1,0.3
		c-0.1,0.1-0.3,0.3-0.3,0.4c0,0-0.2,0.2-0.2,0.3c-0.1,0-0.3,0-0.4,0.1c-0.1,0-0.3,0.1-0.3,0c0-0.1,0-0.2,0-0.3c0,0,0-0.2-0.1-0.2
		c-0.1-0.2-0.1-0.3-0.2-0.5c0-0.1,0-0.1,0-0.2c0-0.2-0.1-0.3-0.1-0.5c0,0-0.1-0.3-0.1-0.3c0-0.2,0-0.3,0.1-0.5c0-0.2,0-0.3-0.1-0.5
		c0,0-0.1-0.1-0.1-0.1c-0.1-0.1-0.1-0.2-0.1-0.3c0.1-0.1,0.1-0.3,0.1-0.4c-0.1,0-0.2-0.1-0.3,0c-0.1-0.2-0.6-0.1-0.7-0.1
		c0,0.1-0.4,0-0.4-0.1C9.7,9.2,9.5,9,9.5,8.9C9.4,8.8,9.3,8.6,9.3,8.4c-0.1,0-0.1-0.2,0-0.2c0-0.1,0-0.2,0-0.3c0-0.1,0-0.1,0-0.2
		c0-0.1,0-0.3,0.1-0.4c0-0.1,0.1-0.1,0.1-0.2c0.1-0.1,0.1,0,0.1-0.1c0.1,0,0.1-0.1,0.2-0.2c0,0,0-0.1,0-0.1c0-0.1,0.1-0.1,0.1-0.2
		c0.1-0.1,0-0.1,0.1-0.1c0,0,0.1-0.1,0.1-0.1c0,0,0.1-0.1,0.1-0.1c0,0.1,0.2,0,0.2,0c0.1-0.1,0.2-0.1,0.3-0.1c0-0.1,0.4,0,0.5,0v0
		c0.1,0,0.3,0.4,0.2,0.5c0.1,0,0.1,0,0.2,0c0,0.1,0.1,0.1,0.2,0.1c0.1,0,0.4,0,0.4-0.1c0.1,0,0.1,0,0.1,0.1c0,0,0,0,0,0
		c0.1,0,0.6,0,0.5,0.1c0.1,0,0.1,0.1,0.2,0.1c0,0.1,0.1,0.3,0.2,0.3c0,0.1,0,0.2,0.1,0.3c0,0.1,0.1,0.3,0.3,0.4
		c0,0.1,0.1,0.2,0.1,0.2c0,0,0,0.1,0.1,0.1C13.7,8.3,13.9,8.7,14,8.8C14,8.7,13.9,8.7,14,8.8L14,8.8z M11.4,6.1c0-0.1,0.1,0,0.1,0
		c0.1,0,0.1,0,0.1,0C11.7,6.2,11.5,6.1,11.4,6.1z M11.2,5.7c0,0,0.1,0.2-0.1,0.2C11.1,5.8,11.1,5.7,11.2,5.7
		C11.2,5.8,11.2,5.8,11.2,5.7L11.2,5.7z M11.1,5.6C11.2,5.6,11.2,5.6,11.1,5.6c0.1,0,0.1,0.1,0,0.1C11.1,5.6,11.1,5.6,11.1,5.6
		L11.1,5.6z M9.8,4.5C9.7,4.5,10,4.4,10,4.4c0,0-0.1,0-0.1-0.1c0,0,0,0,0,0c0,0,0,0,0.1,0c0,0,0.1-0.1,0.1,0.1S10,4.7,9.8,4.7
		C9.8,4.6,9.8,4.6,9.8,4.5z M10.3,4C10.4,4,10.3,4.1,10.3,4c0,0.1,0,0.1,0,0.2c0.1,0,0.1-0.1,0.2-0.1c0,0.1-0.1,0.1,0,0.2
		c0,0,0.1,0.1,0.1,0.1c0.1,0,0.1,0.1,0.1,0.2c0.1,0,0.1,0,0.1-0.1c0.1,0,0.1,0.1,0,0.1c-0.1,0.1-0.2,0.1-0.3,0.1
		c0-0.1,0-0.1-0.1-0.1c-0.1,0,0-0.1,0-0.1c0,0,0.2,0,0.1,0c0-0.1,0-0.2-0.2-0.2c0-0.1,0-0.1,0-0.2C10.1,4,10.2,4.2,10.3,4L10.3,4z
		 M10.2,4.8C10.2,4.8,10.2,4.8,10.2,4.8C10.2,4.8,10.2,4.8,10.2,4.8L10.2,4.8z M9.3,3.5H8.8c-0.1,0-0.2-0.1-0.2-0.2S8.6,3,8.8,3h0.5
		c0.1,0,0.2,0.1,0.2,0.2S9.4,3.5,9.3,3.5z M6.3,7.9C6.4,7.9,6.4,7.9,6.3,7.9C6.4,8,6.3,8,6.3,7.9z M5.9,7.9c0,0-0.2,0-0.2,0
		C5.7,7.9,5.8,8,5.9,7.9c0,0-0.1-0.1-0.1-0.1c0.1,0,0.1,0.1,0.2,0c0-0.1,0,0,0-0.1c0.1,0,0.1,0.1,0.1,0.1C6.1,7.9,6,7.9,5.9,7.9
		L5.9,7.9z M5.4,7.7c-0.1,0-0.2,0-0.2-0.1c0.1,0,0.1,0,0.2,0c0.2,0,0.2,0.1,0.3,0.1c0,0,0.2,0.1,0,0.1C5.5,7.8,5.4,7.7,5.4,7.7
		L5.4,7.7z M5.5,8C5.4,8,5.3,8,5.5,8C5.4,7.9,5.5,8,5.5,8L5.5,8z M5.5,8L5.5,8C5.5,7.9,5.5,7.9,5.5,8z M6,8.5C6,8.5,6,8.5,6,8.5
		C5.9,8.5,5.9,8.5,6,8.5L6,8.5z M4.9,7.5L4.9,7.5c0.1,0.1,0.1,0,0.1,0C5,7.6,4.9,7.6,4.9,7.5z"/>
</g>
</svg>
