<svg xmlns="http://www.w3.org/2000/svg" xmlns:xlink="http://www.w3.org/1999/xlink" width="16" height="16" viewBox="0 0 16 16">
  <defs>
    <clipPath id="clip-sort-down">
      <rect width="16" height="16"/>
    </clipPath>
  </defs>
  <g id="sort-down" clip-path="url(#clip-sort-down)">
    <g id="Group_4290" data-name="Group 4290" transform="translate(0.997 2)">
      <path id="Icon_awesome-sort-amount-up" data-name="Icon awesome-sort-amount-up" d="M8.312,4H6.562a.437.437,0,0,1-.437-.437V2.687a.437.437,0,0,1,.437-.437h1.75a.437.437,0,0,1,.437.437v.875A.437.437,0,0,1,8.312,4ZM.437,11H1.75V2.687a.437.437,0,0,1,.437-.437h.875a.437.437,0,0,1,.437.437V11H4.812a.438.438,0,0,1,.309.75L2.934,14.371a.437.437,0,0,1-.619,0L.128,11.749A.438.438,0,0,1,.437,11Zm11.375,0H6.562a.437.437,0,0,1-.437-.437V9.687a.437.437,0,0,1,.437-.437h5.25a.437.437,0,0,1,.437.437v.875a.437.437,0,0,1-.437.437Zm-1.75-3.5h-3.5a.437.437,0,0,1-.437-.437V6.187a.437.437,0,0,1,.437-.438h3.5a.437.437,0,0,1,.437.437v.876a.437.437,0,0,1-.437.437Zm3.5,7h-7a.437.437,0,0,1-.437-.437v-.875a.437.437,0,0,1,.437-.438h7a.437.437,0,0,1,.438.438v.875a.437.437,0,0,1-.438.437Z" transform="translate(0.003 -2.25)"/>
    </g>
  </g>
</svg>
