<svg xmlns="http://www.w3.org/2000/svg" xmlns:xlink="http://www.w3.org/1999/xlink" width="16" height="16" viewBox="0 0 16 16">
  <defs>
    <clipPath id="clip-transfer">
      <rect width="16" height="16"/>
    </clipPath>
  </defs>
  <g id="transfer" clip-path="url(#clip-transfer)">
    <path id="transfer-2" data-name="transfer" d="M8.24,13.957a.559.559,0,0,1-.345-.516v-.433H.559a.559.559,0,0,1,0-1.118H7.894v-.411a.56.56,0,0,1,.925-.423l1.052.909a.559.559,0,0,1,.03.818L8.849,13.836a.56.56,0,0,1-.4.164A.552.552,0,0,1,8.24,13.957ZM1.216,11.2.164,10.145a.559.559,0,0,1,.03-.818l1.052-.909a.56.56,0,0,1,.925.423v.411H9.506a.559.559,0,1,1,0,1.118H2.171V10.8a.559.559,0,0,1-.955.4ZM.989,4.044A4.044,4.044,0,1,1,5.033,8.088,4.044,4.044,0,0,1,.989,4.044Zm1.118,0A2.926,2.926,0,1,0,5.033,1.118,2.929,2.929,0,0,0,2.107,4.044ZM4.619,6.492V5.944a1.056,1.056,0,0,1-.928-.965h.555c.028.3.232.529.751.529.557,0,.681-.277.681-.451,0-.235-.126-.456-.756-.607-.7-.169-1.185-.459-1.185-1.042a.984.984,0,0,1,.883-.91V1.953h.756v.552a1,1,0,0,1,.81.961H5.627c-.015-.316-.181-.529-.63-.529-.426,0-.681.191-.681.466,0,.24.184.394.756.543s1.185.393,1.185,1.109c0,.517-.391.8-.883.895v.543Z" transform="translate(3 1)"/>
  </g>
</svg>
